<svg xmlns="http://www.w3.org/2000/svg" viewBox="0 0 1200 900" role="img" aria-label="Grocery management system preview">
  <defs>
    <linearGradient id="bg" x1="0" x2="1" y1="0" y2="1">
      <stop stop-color="#07110f"/>
      <stop offset="1" stop-color="#0f1b18"/>
    </linearGradient>
    <linearGradient id="accent" x1="0" x2="1">
      <stop stop-color="#34d399"/>
      <stop offset="1" stop-color="#2dd4bf"/>
    </linearGradient>
  </defs>
  <rect width="1200" height="900" rx="56" fill="url(#bg)"/>
  <rect x="64" y="68" width="1072" height="764" rx="36" fill="#101a17" stroke="#263832" stroke-width="3"/>
  <rect x="64" y="68" width="1072" height="18" rx="9" fill="url(#accent)"/>
  <rect x="116" y="128" width="164" height="596" rx="24" fill="#0a1513" stroke="#263832" stroke-width="2"/>
  <rect x="148" y="168" width="100" height="100" rx="28" fill="#11352e"/>
  <path d="M176 214h46l-8 36h-30l-8-36Z" fill="none" stroke="#7ee7d4" stroke-width="10" stroke-linejoin="round"/>
  <path d="M184 214c4-18 28-18 32 0" fill="none" stroke="#7ee7d4" stroke-width="10" stroke-linecap="round"/>
  <rect x="148" y="322" width="100" height="14" rx="7" fill="#49615b"/>
  <rect x="148" y="368" width="100" height="14" rx="7" fill="#49615b"/>
  <rect x="148" y="414" width="100" height="14" rx="7" fill="#49615b"/>
  <rect x="148" y="632" width="100" height="52" rx="18" fill="#172722" stroke="#2f4c44"/>
  <rect x="332" y="128" width="468" height="346" rx="28" fill="#0a1513" stroke="#263832" stroke-width="2"/>
  <rect x="372" y="184" width="388" height="18" rx="9" fill="#49615b"/>
  <g fill="#172722" stroke="#31524a" stroke-width="2">
    <rect x="372" y="224" width="86" height="80" rx="14"/>
    <rect x="470" y="224" width="86" height="80" rx="14"/>
    <rect x="568" y="224" width="86" height="80" rx="14"/>
    <rect x="666" y="224" width="86" height="80" rx="14"/>
    <rect x="372" y="328" width="86" height="80" rx="14"/>
    <rect x="470" y="328" width="86" height="80" rx="14"/>
    <rect x="568" y="328" width="86" height="80" rx="14"/>
    <rect x="666" y="328" width="86" height="80" rx="14"/>
  </g>
  <g fill="#34d399">
    <rect x="392" y="248" width="46" height="18" rx="9"/>
    <rect x="490" y="248" width="46" height="18" rx="9"/>
    <rect x="588" y="248" width="46" height="18" rx="9"/>
    <rect x="686" y="248" width="46" height="18" rx="9"/>
  </g>
  <g fill="#f8d56b">
    <rect x="392" y="352" width="46" height="18" rx="9"/>
    <rect x="490" y="352" width="46" height="18" rx="9"/>
    <rect x="588" y="352" width="46" height="18" rx="9"/>
    <rect x="686" y="352" width="46" height="18" rx="9"/>
  </g>
  <rect x="836" y="128" width="248" height="346" rx="28" fill="#0a1513" stroke="#263832" stroke-width="2"/>
  <rect x="884" y="184" width="94" height="94" rx="28" fill="#12342e"/>
  <path d="M912 230h50l-9 38h-32l-9-38Z" fill="none" stroke="#34d399" stroke-width="10" stroke-linejoin="round"/>
  <circle cx="924" cy="292" r="8" fill="#f8d56b"/>
  <circle cx="954" cy="292" r="8" fill="#f8d56b"/>
  <rect x="884" y="340" width="154" height="16" rx="8" fill="#49615b"/>
  <rect x="884" y="384" width="112" height="16" rx="8" fill="#34d399"/>
  <rect x="884" y="428" width="178" height="16" rx="8" fill="#263832"/>
  <rect x="332" y="514" width="336" height="210" rx="28" fill="#0a1513" stroke="#263832" stroke-width="2"/>
  <rect x="372" y="650" width="36" height="36" rx="10" fill="#34d399"/>
  <rect x="424" y="612" width="36" height="74" rx="10" fill="#7ee7d4"/>
  <rect x="476" y="576" width="36" height="110" rx="10" fill="#f8d56b"/>
  <rect x="528" y="536" width="36" height="150" rx="10" fill="#ff8a65"/>
  <rect x="372" y="548" width="156" height="16" rx="8" fill="#49615b"/>
  <rect x="704" y="514" width="380" height="210" rx="28" fill="#0a1513" stroke="#263832" stroke-width="2"/>
  <circle cx="760" cy="584" r="14" fill="#34d399"/>
  <rect x="800" y="574" width="208" height="14" rx="7" fill="#49615b"/>
  <circle cx="760" cy="638" r="14" fill="#f8d56b"/>
  <rect x="800" y="628" width="250" height="14" rx="7" fill="#49615b"/>
  <circle cx="760" cy="692" r="14" fill="#ff8a65"/>
  <rect x="800" y="682" width="178" height="14" rx="7" fill="#49615b"/>
</svg>
